<?xml version="1.0" encoding="utf-8"?>
<!-- Generator: Adobe Illustrator 27.5.0, SVG Export Plug-In . SVG Version: 6.00 Build 0)  -->
<svg version="1.1" xmlns="http://www.w3.org/2000/svg" xmlns:xlink="http://www.w3.org/1999/xlink"
	x="0px" y="0px"
	viewBox="0 0 3710 3710" style="enable-background:new 0 0 3710 3710;" xml:space="preserve">
	<!-- <g id="Background">
	<g>
		<g>
			<rect style="fill:#FFFFFF;" width="3710" height="3710"/>
		</g>
	</g>
</g> -->
<g id="Illustration">
	<g>
		<linearGradient id="SVGID_1_" gradientUnits="userSpaceOnUse" x1="3411.0012" y1="3603.3665" x2="1363.6039" y2="1393.4773">
			<stop  offset="0" style="stop-color:#DAE3FE"/>
			<stop  offset="1" style="stop-color:#E9EFFD"/>
		</linearGradient>
		<path style="fill:url(#SVGID_1_);" d="M3125.683,2344.033c-281.327,657.569-1023.941,940.011-1605.79,891.854
			c-158.869-13.148-478.515-39.604-728.098-275.627c-479.307-453.266-405.489-1400.717,53.345-1958.524
			c59.088-71.834,468.089-553.114,1105.44-546.672c466.634,4.717,794.16,268.312,833.986,301.151
			c50.311,41.484,161.276,140.065,261.282,296.456C3280.829,1420.135,3301.484,1933.118,3125.683,2344.033z"/>
		<g>
			<g>
				<path style="fill:#91B3FA;" d="M2653.569,1773.671c0,0,20.283-254.558,144.287-310.398
					c124.003-55.84,350.787-75.278,396.919-439.037c27.008-212.96,41.965-305.744,49.723-346.073
					c3.027-15.732-9.752-30.008-25.717-28.682c-112.933,9.385-481.677,57.974-582.581,295.762
					C2516.578,1227.143,2653.569,1773.671,2653.569,1773.671z"/>
				<path style="fill:#BDD0FB;" d="M3122.599,742.051c-132.833,95.838-293.326,273.185-388.16,457.338
					c-12.898,30.632-48.009,94.98-72.616,213.224c-21.246,98.543-26.739,204.43-20.732,275.522c0.38,4.495,4.331,7.83,8.825,7.45
					c7.728-0.652,7.565-8.908,7.47-8.658c-2.766-120.685,18.877-268.298,67.374-398.484
					c61.271-159.675,176.46-308.703,292.529-433.196l11.882-12.212c89.605-93.358,106.33-92.38,99.671-100.226
					C3127.271,740.957,3124.54,740.658,3122.599,742.051z"/>
			</g>
			<g>
				<path style="fill:#BDD0FB;" d="M2415.004,2242.406c-16.628,6.119,170.592-184.993,256.385-506.735
					c40.428-151.614,60.767-344.714,156.292-410.039c79.502-54.368,324.133,10.518,403.962,33.814
					c9.975,2.911,12.067,16.109,3.463,21.937c-42.418,28.726-133.905,97.372-163.73,173.021
					c-39.312,99.71-143.704,154.902-232.933,163.518c-89.229,8.616-139.624,20.729-196.689,156.082
					C2584.69,2009.356,2462.252,2225.019,2415.004,2242.406z"/>
				
					<linearGradient id="SVGID_00000075857570345718610400000001931544222524488325_" gradientUnits="userSpaceOnUse" x1="3154.1519" y1="1324.3025" x2="1848.8851" y2="2338.9219" gradientTransform="matrix(0.9947 0.1031 -0.1031 0.9947 65.7983 -206.6661)">
					<stop  offset="0" style="stop-color:#DAE3FE"/>
					<stop  offset="1" style="stop-color:#E9EFFD"/>
				</linearGradient>
				<path style="fill:url(#SVGID_00000075857570345718610400000001931544222524488325_);" d="M3112.704,1390.967
					c-104.266-6.413-220.612,29.392-286.371,112.362l-6.217,7.923c-14.388,18.598-98.901,152.65-149.846,265.753
					c-0.634,1.41-0.007,3.068,1.403,3.703c2.395,1.078,3.92-1.522,3.658-1.306c33.894-63.365,81.419-143.229,118.848-202.756
					c40.261-65.017,68.275-108.971,148.525-145.535c89.155-39.095,170.103-35.68,169.857-35.655c1.24,0.002,2.249-1.002,2.25-2.243
					C3114.814,1392.02,3113.878,1391.042,3112.704,1390.967z"/>
			</g>
		</g>
		<g>
			<g>
				
					<linearGradient id="SVGID_00000004539725576984155250000002693530533399360413_" gradientUnits="userSpaceOnUse" x1="959.6468" y1="2008.2804" x2="2721.7012" y2="2008.2804" gradientTransform="matrix(0.9998 -0.0219 0.0219 0.9998 28.2232 -27.654)">
					<stop  offset="0" style="stop-color:#09005D"/>
					<stop  offset="1" style="stop-color:#1A0F91"/>
				</linearGradient>
				<path style="fill:url(#SVGID_00000004539725576984155250000002693530533399360413_);" d="M1158.867,645.528
					c-68.319,5.941-120.699,63.158-120.894,131.735c-1.19,419.375-3.151,1865.913,24.183,2377.906
					c2.896,54.241,47.364,96.851,101.68,97.436c268.645,2.892,1041.393,8.206,1480.085-19.855
					c91.373-5.845,162.475-81.522,162.365-173.081c-0.533-440.149-7.566-1678-67.858-2243.808
					c-7.224-67.792-61.719-120.708-129.689-126.004C2315.74,667.028,1537.678,612.583,1158.867,645.528z"/>
				
					<linearGradient id="SVGID_00000000920471783313497090000014986492085045599655_" gradientUnits="userSpaceOnUse" x1="2804.8171" y1="453.1798" x2="679.9055" y2="3797.8262">
					<stop  offset="0" style="stop-color:#4F52FF"/>
					<stop  offset="1" style="stop-color:#4042E2"/>
				</linearGradient>
				<path style="fill:url(#SVGID_00000000920471783313497090000014986492085045599655_);" d="M1145.811,887.168
					c-5.276,358.739-20.297,1552.112,5.925,1992.565c3.833,64.378,53.84,115.205,115.588,117.356
					c254.234,8.86,906.176,26.005,1277.664-14.871c66.893-7.36,118.017-65.342,119.799-135.549
					c9.292-366.092,34.393-1477.581,8.908-1913.109c-4.066-69.479-57.147-124.918-123.686-129.401
					c-275.276-18.549-982.149-61.325-1298.05-35.018C1192.657,774.079,1146.724,825.061,1145.811,887.168z"/>
				<path style="fill:#1F5AA9;" d="M1760.07,707.902c0.217,9.911,8.121,17.915,18.03,18.216
					c48.919,1.486,186.725,5.705,248.32,7.924c12.145,0.437,21.425-10.674,18.863-22.554c-0.211-0.374-1.789-15.605-17.344-16.687
					c-41.666-2.897-167.369-10.708-250.437-5.916C1760.445,689.871,1759.517,709.27,1760.07,707.902z"/>
			</g>
		</g>
		<g>
			
				<linearGradient id="SVGID_00000092429024658274734300000008343939282876559491_" gradientUnits="userSpaceOnUse" x1="1234.9672" y1="2661.4377" x2="3671.0508" y2="-940.2301">
				<stop  offset="0" style="stop-color:#FE7062"/>
				<stop  offset="1" style="stop-color:#FF928E"/>
			</linearGradient>
			<path style="fill:url(#SVGID_00000092429024658274734300000008343939282876559491_);" d="M2597.721,2884.846H1196.093
				c-14.763,0-26.731-11.968-26.731-26.731V503.16c0-7.036,5.703-12.739,12.739-12.739h1422.315c11.065,0,20.036,8.97,20.036,20.036
				v2347.658C2624.452,2872.878,2612.484,2884.846,2597.721,2884.846z"/>
			
				<linearGradient id="SVGID_00000157269975390406036890000000779397041073841044_" gradientUnits="userSpaceOnUse" x1="1782.4066" y1="3083.5698" x2="2077.3142" y2="-535.7141">
				<stop  offset="0" style="stop-color:#FEBBBA"/>
				<stop  offset="1" style="stop-color:#FF928E"/>
			</linearGradient>
			<path style="fill:url(#SVGID_00000157269975390406036890000000779397041073841044_);" d="M2572.274,2840.76H1221.539
				c-14.763,0-26.731-11.968-26.731-26.731V542.076c0-6.624,5.37-11.995,11.995-11.995h1365.472
				c14.763,0,26.731,11.968,26.731,26.731v2257.216C2599.005,2828.792,2587.037,2840.76,2572.274,2840.76z"/>
			<path style="fill:#FFFFFF;" d="M2331.75,928.421h-849.723c-3.281,0-5.966-2.685-5.966-5.966V719.362
				c0-3.281,2.685-5.965,5.966-5.965h849.723c3.281,0,5.965,2.684,5.965,5.965v203.093
				C2337.715,925.737,2335.031,928.421,2331.75,928.421z"/>
			<g>
				<path style="fill:#FFFFFF;" d="M2448.221,1979.193h-819.408c-3.058,0-5.56-2.502-5.56-5.56v-107.308
					c0-3.058,2.502-5.56,5.56-5.56h819.408c3.058,0,5.56,2.502,5.56,5.56v107.308
					C2453.781,1976.691,2451.279,1979.193,2448.221,1979.193z"/>
				
					<linearGradient id="SVGID_00000147899497941251828700000006790206065905897140_" gradientUnits="userSpaceOnUse" x1="945.239" y1="2541.6248" x2="2178.9639" y2="992.9072">
					<stop  offset="0" style="stop-color:#FE7062"/>
					<stop  offset="1" style="stop-color:#FF928E"/>
				</linearGradient>
				<path style="fill:url(#SVGID_00000147899497941251828700000006790206065905897140_);" d="M1541.345,2023.871h-201.793
					c-3.276,0-5.932-2.656-5.932-5.932v-195.92c0-3.276,2.656-5.932,5.932-5.932h201.793c3.276,0,5.932,2.656,5.932,5.932v195.92
					C1547.277,2021.216,1544.621,2023.871,1541.345,2023.871z"/>
			</g>
			<g>
				<path style="fill:#FFFFFF;" d="M2451.218,1676.916h-819.409c-3.058,0-5.56-2.502-5.56-5.56v-107.308
					c0-3.058,2.502-5.56,5.56-5.56h819.409c3.058,0,5.56,2.502,5.56,5.56v107.308
					C2456.778,1674.414,2454.276,1676.916,2451.218,1676.916z"/>
				
					<linearGradient id="SVGID_00000134937227650695883180000000894736539967504050_" gradientUnits="userSpaceOnUse" x1="948.2358" y1="2239.3477" x2="2181.9607" y2="690.6302">
					<stop  offset="0" style="stop-color:#FE7062"/>
					<stop  offset="1" style="stop-color:#FF928E"/>
				</linearGradient>
				<path style="fill:url(#SVGID_00000134937227650695883180000000894736539967504050_);" d="M1544.342,1721.594h-201.793
					c-3.276,0-5.932-2.656-5.932-5.932v-195.92c0-3.276,2.656-5.932,5.932-5.932h201.793c3.276,0,5.932,2.656,5.932,5.932v195.92
					C1550.274,1718.938,1547.618,1721.594,1544.342,1721.594z"/>
			</g>
			<g>
				<path style="fill:#FFFFFF;" d="M2448.221,2583.748h-819.408c-3.058,0-5.56-2.502-5.56-5.56v-107.308
					c0-3.058,2.502-5.56,5.56-5.56h819.408c3.058,0,5.56,2.502,5.56,5.56v107.308
					C2453.781,2581.246,2451.279,2583.748,2448.221,2583.748z"/>
				
					<linearGradient id="SVGID_00000168802336821703839610000001123890786773569452_" gradientUnits="userSpaceOnUse" x1="945.239" y1="3146.179" x2="2178.9639" y2="1597.4613">
					<stop  offset="0" style="stop-color:#FE7062"/>
					<stop  offset="1" style="stop-color:#FF928E"/>
				</linearGradient>
				<path style="fill:url(#SVGID_00000168802336821703839610000001123890786773569452_);" d="M1541.345,2628.426h-201.793
					c-3.276,0-5.932-2.656-5.932-5.932v-195.92c0-3.276,2.656-5.932,5.932-5.932h201.793c3.276,0,5.932,2.656,5.932,5.932v195.92
					C1547.277,2625.77,1544.621,2628.426,1541.345,2628.426z"/>
			</g>
			<g>
				<path style="fill:#FFFFFF;" d="M2451.218,2281.47h-819.409c-3.058,0-5.56-2.502-5.56-5.56v-107.308
					c0-3.058,2.502-5.56,5.56-5.56h819.409c3.058,0,5.56,2.502,5.56,5.56v107.308
					C2456.778,2278.969,2454.276,2281.47,2451.218,2281.47z"/>
				
					<linearGradient id="SVGID_00000181785514627291668640000011848717552438031492_" gradientUnits="userSpaceOnUse" x1="948.2358" y1="2843.9019" x2="2181.9607" y2="1295.1843">
					<stop  offset="0" style="stop-color:#FE7062"/>
					<stop  offset="1" style="stop-color:#FF928E"/>
				</linearGradient>
				<path style="fill:url(#SVGID_00000181785514627291668640000011848717552438031492_);" d="M1544.342,2326.149h-201.793
					c-3.276,0-5.932-2.656-5.932-5.932v-195.92c0-3.276,2.656-5.932,5.932-5.932h201.793c3.276,0,5.932,2.656,5.932,5.932v195.92
					C1550.274,2323.493,1547.618,2326.149,1544.342,2326.149z"/>
			</g>
			<g>
				<path style="fill:#FFFFFF;" d="M2451.218,1374.639h-819.409c-3.058,0-5.56-2.502-5.56-5.56v-107.308
					c0-3.058,2.502-5.56,5.56-5.56h819.409c3.058,0,5.56,2.502,5.56,5.56v107.308
					C2456.778,1372.137,2454.276,1374.639,2451.218,1374.639z"/>
				
					<linearGradient id="SVGID_00000067213864750555577880000013929717351499803071_" gradientUnits="userSpaceOnUse" x1="948.2358" y1="1937.0707" x2="2181.9607" y2="388.3531">
					<stop  offset="0" style="stop-color:#FE7062"/>
					<stop  offset="1" style="stop-color:#FF928E"/>
				</linearGradient>
				<path style="fill:url(#SVGID_00000067213864750555577880000013929717351499803071_);" d="M1544.342,1419.317h-201.793
					c-3.276,0-5.932-2.656-5.932-5.932v-195.92c0-3.276,2.656-5.932,5.932-5.932h201.793c3.276,0,5.932,2.656,5.932,5.932v195.92
					C1550.274,1416.661,1547.618,1419.317,1544.342,1419.317z"/>
			</g>
		</g>
		<g>
			<g>
				<path style="fill:#91B3FA;" d="M656.56,2864.185c-1.625-0.442-2.931-1.775-3.228-3.51c-0.984-5.726-1.863-11.568-2.613-17.364
					c-0.308-2.381,1.407-4.532,3.832-4.806c5.875-0.697,4.845,5.331,7.507,20.825c0.408,2.367-1.216,4.588-3.627,4.959
					C657.788,2864.387,657.153,2864.346,656.56,2864.185z"/>
				<path style="fill:#91B3FA;" d="M647.253,2788.767c0.017-11.162,0.487-22.46,1.397-33.578c0.196-2.387,2.329-4.144,4.765-3.924
					c6.638,0.638,2.741,4.719,2.688,37.615c-0.004,2.397-1.987,4.313-4.432,4.282
					C649.194,2793.128,647.249,2791.133,647.253,2788.767z M656.565,2701.231c2.333-10.963,5.146-22.039,8.272-32.531
					c1.672-5.642,10.11-2.888,8.498,2.517c-3.107,10.463-5.82,21.149-8.103,31.88c-0.498,2.342-2.842,3.82-5.234,3.305
					C657.577,2705.879,656.073,2703.548,656.565,2701.231z M683.705,2617.553c4.529-10.182,9.532-20.313,14.87-30.116
					c2.756-5.051,10.557-0.871,7.819,4.156c-5.231,9.604-10.133,19.532-14.57,29.505
					C689.49,2626.346,681.376,2622.784,683.705,2617.553z M728.853,2547.312c-1.995-1.406-2.469-4.12-1.055-6.059
					c6.575-9.034,13.606-17.928,20.898-26.432c3.75-4.371,10.549,1.26,6.803,5.629c-7.144,8.332-14.035,17.046-20.479,25.897
					C733.61,2548.29,730.844,2548.721,728.853,2547.312z M786.758,2481.717c-1.666-1.773-1.567-4.516,0.223-6.13
					c8.337-7.516,17.079-14.798,25.985-21.642c4.587-3.509,10.093,3.331,5.51,6.855c-8.727,6.707-17.294,13.841-25.463,21.206
					C791.227,2483.617,788.425,2483.489,786.758,2481.717z M859.803,2431.148c-1.067-0.29-2.027-0.966-2.644-1.971
					c-1.27-2.061-0.606-4.724,1.484-5.945c9.74-5.69,19.822-11.066,29.966-15.982c2.183-1.057,4.842-0.172,5.947,1.981
					c1.102,2.152,0.229,4.751-1.952,5.809c-9.942,4.815-19.822,10.087-29.368,15.663
					C862.165,2431.328,860.926,2431.454,859.803,2431.148z M940.123,2394.613c-1.364-0.371-2.53-1.37-3.038-2.775
					c-0.819-2.268,0.386-4.735,2.688-5.512c10.719-3.615,21.726-6.859,32.713-9.639c2.357-0.602,4.79,0.796,5.425,3.121
					c0.636,2.319-0.761,4.686-3.121,5.283c-10.764,2.724-21.549,5.903-32.051,9.446
					C941.864,2394.832,940.956,2394.84,940.123,2394.613z M1023.287,2371.32c-0.331-2.379,1.364-4.546,3.786-4.843
					c11.265-1.381,22.746-2.338,34.124-2.848c5.862-0.247,6.334,8.407,0.504,8.669c-11.145,0.499-22.393,1.439-33.43,2.791
					C1025.856,2375.387,1023.619,2373.703,1023.287,2371.32z M1314.179,2438.234c-28.284-17.597-34.179-16.703-31.087-22.506
					c1.125-2.117,3.794-2.908,5.965-1.787c10.105,5.251,20.131,10.965,29.801,16.981
					C1323.823,2434.008,1319.161,2441.326,1314.179,2438.234z M1112.16,2368.597c0.172-2.388,2.286-4.166,4.724-3.97
					c11.341,0.911,22.805,2.271,34.073,4.043c5.792,0.913,4.481,9.479-1.302,8.568c-11.043-1.736-22.278-3.07-33.39-3.963
					C1113.798,2373.075,1111.991,2370.961,1112.16,2368.597z M1235.031,2399.479c-31.208-11.556-36.872-9.517-35.056-15.852
					c1.152-4.018,5.982-3.02,5.455-2.947c10.993,3.14,21.976,6.737,32.642,10.682c2.297,0.85,3.474,3.356,2.634,5.596
					C1239.904,2399.097,1237.47,2400.346,1235.031,2399.479z"/>
				<path style="fill:#91B3FA;" d="M1372.098,2481.324c-11.14-9.824-17.762-12.879-13.953-17.401c1.544-1.836,4.332-2.09,6.227-0.54
					c11.929,9.695,17.807,13.454,13.975,17.645C1377.198,2482.285,1373.924,2482.928,1372.098,2481.324z"/>
			</g>
			<g>
				<path style="fill:#91B3FA;" d="M1520.023,2785.258c-1.823-0.496-3.202-2.107-3.283-4.053
					c-0.239-5.712-0.601-11.481-1.075-17.152c-0.2-2.391,1.613-4.465,4.05-4.633c2.43-0.161,4.572,1.631,4.773,4.025
					c0.483,5.787,0.851,11.674,1.096,17.504c0.1,2.395-1.799,4.395-4.24,4.466
					C1520.888,2785.427,1520.443,2785.372,1520.023,2785.258z"/>
				<path style="fill:#91B3FA;" d="M961.483,3205.388c-11.764-3.545-23.517-7.62-34.931-12.113
					c-2.278-0.896-3.405-3.425-2.515-5.647c2.506-6.26,5.536-0.906,39.956,9.469c2.345,0.705,3.683,3.134,2.988,5.425
					C965.77,3206.522,960.956,3205.456,961.483,3205.388z M1016.292,3213.9c1.045-6.65,5.369-2.062,40.983,0.771
					c2.444,0.182,4.278,2.29,4.109,4.675c-0.17,2.389-2.284,4.169-4.721,3.975c-12.187-0.968-24.525-2.46-36.67-4.432
					C1017.559,3218.491,1015.922,3216.249,1016.292,3213.9z M872.305,3167.592c-10.692-5.978-21.273-12.481-31.444-19.329
					c-2.024-1.364-2.559-4.067-1.191-6.039c3.856-5.556,5.604,0.316,36.951,17.839c2.134,1.194,2.897,3.845,1.706,5.925
					C877.135,3168.065,874.441,3168.781,872.305,3167.592z M1115.168,3223.911c-1.781-0.484-3.145-2.032-3.278-3.938
					c-0.166-2.393,1.676-4.441,4.115-4.576c12-0.663,24.092-1.836,35.938-3.486c2.422-0.337,4.676,1.313,5.047,3.685
					c0.373,2.374-1.285,4.57-3.7,4.906c-12.094,1.685-24.437,2.882-36.685,3.558
					C1116.109,3224.088,1115.623,3224.035,1115.168,3223.911z M1209.336,3208.297c-1.439-0.391-2.651-1.484-3.109-2.992
					c-0.697-2.302,0.636-4.704,2.979-5.363c11.497-3.226,22.999-6.98,34.187-11.156c2.277-0.85,4.842,0.28,5.736,2.52
					c0.891,2.241-0.23,4.747-2.504,5.595c-11.418,4.263-23.158,8.092-34.893,11.387
					C1210.923,3208.515,1210.099,3208.504,1209.336,3208.297z M1297.501,3172.761c-1.117-0.304-2.117-1.032-2.726-2.107
					c-1.193-2.104-0.43-4.74,1.703-5.885c10.479-5.625,20.842-11.76,30.803-18.234c2.028-1.314,4.775-0.76,6.144,1.241
					c1.366,2.003,0.832,4.694-1.195,6.01c-10.164,6.605-20.739,12.865-31.433,18.607
					C1299.752,3172.952,1298.572,3173.052,1297.501,3172.761z M1375.45,3119.135c-0.806-0.219-1.562-0.664-2.16-1.326
					c-1.628-1.806-1.47-4.547,0.353-6.123c8.957-7.74,17.684-15.957,25.942-24.418c1.679-1.722,4.478-1.77,6.255-0.098
					c1.776,1.666,1.855,4.413,0.173,6.134c-8.427,8.636-17.332,17.022-26.474,24.923
					C1378.385,3119.223,1376.841,3119.514,1375.45,3119.135z M1437.984,3049.303c-5.592-3.985,0.399-5.464,18.753-35.536
					c2.988-4.899,10.602-0.383,7.608,4.52c-6.262,10.26-13.054,20.382-20.188,30.08
					C1442.741,3050.291,1439.982,3050.728,1437.984,3049.303z M1485.576,2968.332c-6.339-2.685-0.868-5.384,10.249-38.788
					c1.803-5.416,10.233-2.67,8.418,2.776c-3.793,11.4-8.124,22.759-12.873,33.763
					C1490.408,2968.313,1487.771,2969.281,1485.576,2968.332z M1513.366,2878.844c-2.205-0.6-3.628-2.766-3.213-5.001
					c2.148-11.617,3.818-23.419,4.962-35.075c0.235-2.382,2.397-4.105,4.831-3.849c2.44,0.271,4.215,2.398,3.982,4.781
					c-1.169,11.895-2.873,23.935-5.066,35.788c-0.434,2.353-2.736,3.892-5.142,3.437
					C1513.599,2878.903,1513.481,2878.875,1513.366,2878.844z"/>
				<path style="fill:#91B3FA;" d="M793.369,3111.368c-11.483-10.238-17.164-14.244-13.134-18.252
					c4.191-4.172,7.292,1.376,19.048,11.863c1.82,1.622,1.968,4.367,0.336,6.13C797.986,3112.874,795.187,3112.988,793.369,3111.368
					z"/>
			</g>
			<g>
				<g>
					<path style="fill:#91B3FA;" d="M830.991,2997.424l61.789-13.743c21.201,20.583,45.864,38.038,73.362,51.352
						c8.224,60.062,4.543,64.857,11.194,66.386l74.37,17.095c2.173,0.498,4.415-0.406,5.58-2.251l33.253-52.636
						c30.527,0.021,60.294-4.92,88.299-14.193l49.687,39.366c1.742,1.379,4.172,1.533,6.05,0.385l64.307-39.336
						c1.879-1.15,2.794-3.35,2.277-5.479l-14.732-60.746c20.749-20.55,38.265-44.531,51.528-71.338l63.077-6.288
						c2.213-0.22,4.022-1.794,4.507-3.919l16.574-72.724c0.485-2.125-0.463-4.334-2.36-5.498l-54.075-33.216
						c-0.33-29.933-5.716-59.176-15.499-86.744c37.649-47.948,43.53-48.55,39.9-54.191c-41.177-61.592-39.716-67.31-46.483-65.808
						l-61.79,13.742c-21.2-20.584-45.864-38.038-73.361-51.352c-8.218-60.026-4.54-64.855-11.193-66.388
						c-74.182-15.715-76.377-20.504-79.951-14.844l-33.254,52.637c-30.526-0.024-60.294,4.918-88.3,14.192
						c-48.742-37.015-49.938-43.299-55.736-39.751c-62.948,40.044-68.174,38.253-66.584,44.815l14.732,60.745
						c-20.749,20.55-38.266,44.531-51.527,71.338c-60.092,7.238-66.074,3.566-67.585,10.208
						c-15.104,72.236-20.063,74.626-14.215,78.221l54.074,33.216c0.331,29.93,5.717,59.175,15.499,86.744
						c-37.521,47.786-43.544,48.52-39.899,54.191C825.685,2993.208,824.224,2998.927,830.991,2997.424z"/>
				</g>
				<g>
					<path style="fill:#BDD0FB;" d="M1013.03,2791.856c-1.147-40.16,31.236-73.369,72.186-74.028
						c40.946-0.646,75.197,31.479,76.346,71.639c1.144,40.159-31.236,73.369-72.186,74.03l0,0
						C1048.415,2864.156,1014.175,2832.007,1013.03,2791.856z M1089.189,2856.988l0.042,0.011L1089.189,2856.988z
						 M1085.587,2730.845c-33.238,0.533-60.243,27.318-59.285,60.796c0.94,32.984,29.068,59.388,62.7,58.837
						c33.631-0.542,60.228-27.816,59.285-60.798C1147.345,2756.648,1119.158,2730.298,1085.587,2730.845z"/>
				</g>
				<path style="fill:#BDD0FB;" d="M1039.578,2969.632L1039.578,2969.632c-10.612-2.885-20.962-6.649-30.86-11.23
					c-2.976-1.377-4.456-4.623-3.644-7.616c0.097-0.357,0.227-0.71,0.39-1.056c1.534-3.248,5.488-4.626,8.807-3.09
					c11.385,5.268,23.421,9.374,35.765,12.22l0,0c93.003,21.376,185.539-33.279,209.798-122.484c0.619-2.278,1.193-4.58,1.724-6.901
					c21.383-93.835-39.203-186.988-134.424-208.902c-95.087-21.857-190.148,35.804-211.521,129.385
					c-12.691,55.708,6.403,90.441,4.837,96.201c-1.693,6.224-10.648,6.374-12.718,0.242c-11.31-33.499-13.071-70.631-3.225-106.841
					c42.491-156.239,256.172-186.005,344.851-48.186c27.292,42.411,36.226,92.515,25.155,141.08
					c-0.571,2.513-1.195,5.006-1.866,7.481c-12.316,45.309-41.17,83.654-81.891,108.564c-42.945,26.266-93.947,34.446-143.61,23.03
					C1044.612,2970.948,1042.086,2970.314,1039.578,2969.632z"/>
			</g>
		</g>
		<g>
			<g>
				<path style="fill:#91B3FA;" d="M685.195,2338.43c13.71,11.572,29.366,21.042,46.54,27.817l7.115,37.728
					c0.788,4.187,4.107,1.959,48.237,9.228c4.072,0.596,3.04-2.939,20.914-35.766c18.398-1.558,36.111-6.13,52.569-13.276
					l31.729,21.662c3.527,2.403,4.289-1.52,40.634-27.584c1.081-0.804,1.532-2.205,1.125-3.488l-11.635-36.614
					c11.572-13.71,21.041-29.365,27.816-46.54c35.912-7.551,39.657-5.611,40.267-9.758c5.83-45.262,8.701-46.949,5.018-48.855
					l-34.095-17.652c-1.557-18.397-6.129-36.112-13.276-52.569l21.662-31.729c2.402-3.518-1.519-4.289-27.584-40.632
					c-2.443-3.289-4.07-0.118-40.102,10.51c-13.71-11.573-29.365-21.042-46.54-27.817l-7.115-37.728
					c-0.79-4.191-4.108-1.959-48.238-9.228c-4.049-0.595-2.949,2.774-20.912,35.766c-18.398,1.556-36.113,6.129-52.57,13.276
					l-31.728-21.661c-1.112-0.76-2.584-0.729-3.664,0.074l-36.969,27.51c-1.08,0.804-1.532,2.205-1.124,3.488l11.634,36.613
					c-11.572,13.71-21.041,29.365-27.817,46.54c-35.913,7.551-39.661,5.611-40.266,9.759c-5.829,45.244-8.703,46.945-5.018,48.854
					l34.094,17.652c1.557,18.397,6.129,36.112,13.276,52.569c-20.056,30.733-24.097,32.019-21.587,35.393l27.51,36.97
					C647.552,2352.245,649.347,2349.004,685.195,2338.43z"/>
			</g>
			<g>
				<g>
					<path style="fill:#BDD0FB;" d="M745.825,2214.548c-2.693-26.438,16.517-50.018,42.961-52.712
						c26.43-2.696,50.016,16.516,52.711,42.956c2.688,26.376-16.583,50.025-42.959,52.715l0,0
						C772.16,2260.192,748.517,2240.929,745.825,2214.548z M797.81,2250.379l0.045,0.012L797.81,2250.379z M760.082,2213.092
						c1.892,18.518,18.496,32.043,37,30.158l0,0c29.732-3.035,41.151-40.795,17.903-59.744
						C791.839,2164.646,757.032,2183.168,760.082,2213.092z"/>
				</g>
				<g>
					<path style="fill:#91B3FA;" d="M567.555,2320.562c-2.846-5.794-5.5-11.783-7.891-17.802c-0.974-2.453,0.223-5.228,2.675-6.203
						c6.17-2.452,6.459,4.849,13.791,19.796c1.164,2.369,0.185,5.231-2.183,6.393
						C571.59,2323.904,568.723,2322.941,567.555,2320.562z"/>
					<path style="fill:#91B3FA;" d="M543.822,2240.892c-1.571-12.586-2.262-25.849-1.846-39.307c0.195-6.331,9.744-6.001,9.55,0.295
						c-1.079,34.867,5.56,42.179-2.374,43.163C546.512,2245.368,544.147,2243.495,543.822,2240.892z M555.288,2144.451
						c-2.531-0.746-3.977-3.402-3.233-5.934c3.701-12.552,8.428-24.922,14.056-36.766c2.716-5.704,11.343-1.611,8.631,4.102
						c-5.414,11.393-9.964,23.291-13.52,35.365C559.911,2145.661,554.717,2144.532,555.288,2144.451z M602.984,2055.694
						c-0.646-0.176-1.264-0.489-1.81-0.944c-2.024-1.694-2.291-4.706-0.599-6.731c8.408-10.049,17.667-19.511,27.522-28.123
						c1.985-1.733,5.009-1.531,6.74,0.453c1.737,1.986,1.534,5.005-0.452,6.74c-9.481,8.288-18.39,17.393-26.479,27.062
						C606.667,2055.627,604.729,2056.168,602.984,2055.694z M681.978,1993.202c-1.267-0.344-2.388-1.208-3.021-2.475
						c-1.181-2.359-0.224-5.229,2.136-6.407c11.711-5.856,23.984-10.827,36.479-14.773c2.519-0.792,5.2,0.602,5.996,3.119
						c0.793,2.515-0.602,5.198-3.119,5.993c-12.016,3.794-23.821,8.572-35.084,14.205
						C684.273,1993.411,683.069,1993.499,681.978,1993.202z M775.87,1963.191c-0.14-2.634,1.88-4.886,4.514-5.028
						c13.119-0.704,26.356-0.383,39.347,0.955c6.267,0.616,5.326,10.151-0.979,9.504c-12.495-1.287-25.232-1.596-37.854-0.916
						C778.198,1967.841,776.011,1965.772,775.87,1963.191z"/>
					<path style="fill:#91B3FA;" d="M896.03,1990.01c-15.878-7.418-22.32-7.378-20.051-13.415c0.928-2.469,3.625-3.749,6.152-2.792
						c6.025,2.262,12.062,4.803,17.945,7.55c2.39,1.116,3.422,3.959,2.305,6.351C901.281,1990.059,898.474,1991.139,896.03,1990.01z
						"/>
				</g>
				<g>
					<path style="fill:#91B3FA;" d="M1025.585,2139.375c-5.089-16.84-9.401-21.559-3.386-23.895c2.462-0.958,5.227,0.263,6.183,2.72
						c2.335,6.001,4.472,12.196,6.348,18.41c0.763,2.526-0.666,5.193-3.19,5.954
						C1029.022,2143.329,1026.348,2141.905,1025.585,2139.375z"/>
					<path style="fill:#91B3FA;" d="M751.01,2453.062c1.209-7.842,8.068-1.126,42.581-1.156c6.302-0.018,6.344,9.548,0.008,9.555
						c-12.906,0.01-25.893-0.983-38.597-2.949C752.436,2458.123,750.6,2455.703,751.01,2453.062z M850.091,2450.211
						c-0.646-2.557,0.899-5.156,3.459-5.804c33.737-8.552,38.406-16.715,41.537-9.39c1.034,2.427-0.094,5.234-2.52,6.269
						c-11.837,5.048-24.174,9.217-36.672,12.383C853.336,2454.315,850.742,2452.768,850.091,2450.211z M940.071,2408.725
						c-4.84-6.315,4.684-6.548,28.603-31.556c4.371-4.56,11.278,2.035,6.906,6.606c-8.915,9.317-18.608,18.011-28.812,25.833
						C944.678,2411.211,941.677,2410.821,940.071,2408.725z M1006.51,2335.181c-6.941-3.926,1.766-7.87,13.972-40.236
						c2.225-5.907,11.172-2.55,8.942,3.369c-4.541,12.041-10.059,23.836-16.403,35.06
						C1011.719,2335.674,1008.803,2336.473,1006.51,2335.181z M1034.535,2236.189c3.78-34.572-2.232-41.85,5.74-42.206
						c2.639-0.121,4.868,1.921,4.988,4.557c0.58,12.909,0.166,25.924-1.231,38.69c-0.287,2.622-2.645,4.517-5.269,4.229
						C1036.146,2241.171,1034.247,2238.816,1034.535,2236.189z"/>
					<path style="fill:#91B3FA;" d="M694.415,2441.095c-5.943-2.556-11.856-5.373-17.574-8.373
						c-2.335-1.227-3.235-4.114-2.009-6.451c3.089-5.881,8.036-0.541,23.358,6.047c2.423,1.043,3.543,3.852,2.502,6.276
						C699.633,2441.052,696.793,2442.123,694.415,2441.095z"/>
				</g>
				<path style="fill:#BDD0FB;" d="M753.078,2319.961c-4.254-1.567-5.775-5.823-4.466-9.322c1.388-3.708,5.553-5.585,9.223-4.2
					c6.881,2.574,14.099,4.431,21.461,5.512c1.557-0.072,39.874,8.229,77.203-19.468c74.006-55.076,44.374-172.993-47-186.386
					c-52.57-7.71-101.872,25.522-115.475,75.57c-13.706,50.403,14.749,70.656,0.414,76.61c-3.653,1.523-7.846-0.207-9.368-3.862
					c-8.205-19.708-10.893-41.344-7.777-62.571c9.444-64.46,69.619-109.411,134.288-99.925
					c69.587,10.202,115.802,79.181,96.981,148.397c-15.175,55.826-70.38,94.761-131.346,85.816l-0.002-0.001
					C768.962,2324.917,760.839,2322.843,753.078,2319.961z"/>
			</g>
		</g>
	</g>
</g>
</svg>
